<svg width="3073" height="1946" viewBox="0 0 3073 1946" fill="none" xmlns="http://www.w3.org/2000/svg">
<path d="M0 513C0 402.543 89.5431 313 200 313H600C600 423.457 510.457 513 400 513H0Z" fill="#F7CE5C"/>
<path d="M0 945C0 834.543 89.5431 745 200 745H600C600 855.457 510.457 945 400 945H0Z" fill="#F7CE5C"/>
<path d="M400 529C510.457 529 600 618.543 600 729H200C89.5431 729 0 639.457 0 529H400ZM324 557C322.748 557 321.524 557.371 320.482 558.065C319.441 558.76 318.629 559.747 318.149 560.901L301.177 601.661C300.986 602.117 300.673 602.511 300.272 602.8C299.872 603.089 299.398 603.261 298.905 603.298L254.834 606.827C253.586 606.925 252.396 607.391 251.413 608.164C250.43 608.937 249.699 609.983 249.312 611.171C248.924 612.359 248.898 613.635 249.236 614.838C249.575 616.04 250.262 617.116 251.213 617.929L284.805 646.635C285.176 646.955 285.452 647.37 285.604 647.836C285.755 648.302 285.774 648.8 285.661 649.276L275.407 692.218C275.118 693.432 275.196 694.705 275.63 695.875C276.064 697.045 276.837 698.061 277.849 698.794C278.86 699.527 280.067 699.945 281.316 699.995C282.566 700.045 283.802 699.725 284.869 699.074L322.607 676.079C323.027 675.824 323.509 675.689 324 675.689C324.491 675.689 324.973 675.824 325.393 676.079L363.131 699.074C364.198 699.725 365.434 700.045 366.684 699.995C367.933 699.945 369.14 699.527 370.151 698.794C371.163 698.061 371.936 697.045 372.37 695.875C372.804 694.705 372.882 693.432 372.593 692.218L362.339 649.276C362.226 648.8 362.245 648.302 362.396 647.836C362.548 647.37 362.824 646.955 363.195 646.635L396.787 617.918C397.738 617.105 398.425 616.03 398.764 614.827C399.102 613.624 399.076 612.348 398.688 611.16C398.301 609.973 397.57 608.926 396.587 608.153C395.604 607.38 394.414 606.915 393.166 606.816L349.095 603.287C348.604 603.248 348.132 603.075 347.733 602.786C347.335 602.497 347.024 602.104 346.834 601.65L329.851 560.901C329.371 559.747 328.559 558.76 327.518 558.065C326.476 557.371 325.252 557 324 557ZM327.043 609.864C328.747 613.95 331.548 617.488 335.136 620.088C338.724 622.688 342.96 624.25 347.38 624.603L355.277 625.233L349.255 630.389C345.889 633.267 343.383 637.016 342.013 641.224C340.642 645.431 340.46 649.935 341.487 654.239L343.33 661.939L336.568 657.822C332.784 655.514 328.435 654.293 324 654.293C319.565 654.293 315.216 655.514 311.432 657.822L304.67 661.939L306.513 654.239C308.602 645.459 305.603 636.26 298.745 630.378L292.723 625.244L300.62 624.603C305.039 624.251 309.275 622.691 312.862 620.093C316.45 617.495 319.251 613.959 320.957 609.875L324 602.57L327.043 609.864Z" fill="#F7CE5C"/>
<path d="M1255.89 450.006V986H1186.59V888.176C1167.57 920.784 1141.42 946.259 1108.13 964.601C1074.84 982.264 1036.8 991.095 994.004 991.095C924.033 991.095 868.667 971.734 827.907 933.012C787.826 893.611 767.786 836.207 767.786 760.801V450.006H840.135V753.668C840.135 810.053 854.061 852.851 881.914 882.062C909.767 911.273 949.508 925.879 1001.14 925.879C1057.52 925.879 1102.02 908.896 1134.63 874.929C1167.23 840.283 1183.54 792.39 1183.54 731.25V450.006H1255.89ZM1734.67 445.93C1784.94 445.93 1830.45 457.479 1871.21 480.576C1911.97 502.994 1943.9 534.923 1967 576.362C1990.1 617.801 2001.64 665.015 2001.64 718.003C2001.64 771.67 1990.1 819.224 1967 860.663C1943.9 902.102 1911.97 934.371 1871.21 957.468C1831.13 979.886 1785.62 991.095 1734.67 991.095C1691.19 991.095 1651.79 982.264 1616.46 964.601C1581.82 946.259 1553.28 919.765 1530.87 885.119V1183.69H1458.52V450.006H1527.81V555.982C1549.55 520.657 1578.08 493.483 1613.4 474.462C1649.41 455.441 1689.83 445.93 1734.67 445.93ZM1729.57 926.898C1766.93 926.898 1800.9 918.406 1831.47 901.423C1862.04 883.76 1885.82 858.965 1902.8 827.036C1920.46 795.107 1929.29 758.763 1929.29 718.003C1929.29 677.243 1920.46 641.238 1902.8 609.989C1885.82 578.06 1862.04 553.265 1831.47 535.602C1800.9 517.939 1766.93 509.108 1729.57 509.108C1691.53 509.108 1657.22 517.939 1626.65 535.602C1596.76 553.265 1572.98 578.06 1555.32 609.989C1538.34 641.238 1529.85 677.243 1529.85 718.003C1529.85 758.763 1538.34 795.107 1555.32 827.036C1572.98 858.965 1596.76 883.76 1626.65 901.423C1657.22 918.406 1691.53 926.898 1729.57 926.898ZM2615.83 740.421H2167.47C2171.55 796.126 2192.95 841.302 2231.67 875.948C2270.39 909.915 2319.3 926.898 2378.4 926.898C2411.69 926.898 2442.26 921.124 2470.11 909.575C2497.97 897.347 2522.08 879.684 2542.46 856.587L2583.22 903.461C2559.45 931.993 2529.55 953.732 2493.55 968.677C2458.22 983.622 2419.16 991.095 2376.37 991.095C2321.34 991.095 2272.43 979.546 2229.63 956.449C2187.51 932.672 2154.56 900.064 2130.79 858.625C2107.01 817.186 2095.12 770.312 2095.12 718.003C2095.12 665.694 2106.33 618.82 2128.75 577.381C2151.85 535.942 2183.09 503.673 2222.5 480.576C2262.58 457.479 2307.41 445.93 2357 445.93C2406.6 445.93 2451.09 457.479 2490.49 480.576C2529.89 503.673 2560.8 535.942 2583.22 577.381C2605.64 618.141 2616.85 665.015 2616.85 718.003L2615.83 740.421ZM2357 508.089C2305.37 508.089 2261.9 524.733 2226.57 558.02C2191.93 590.628 2172.23 633.426 2167.47 686.414H2547.56C2542.8 633.426 2522.76 590.628 2487.44 558.02C2452.79 524.733 2409.31 508.089 2357 508.089ZM2833.4 554.963C2850.39 518.958 2875.52 491.785 2908.81 473.443C2942.78 455.101 2984.55 445.93 3034.15 445.93V516.241L3016.82 515.222C2960.44 515.222 2916.28 532.545 2884.35 567.191C2852.42 601.837 2836.46 650.409 2836.46 712.908V986H2764.11V450.006H2833.4V554.963Z" fill="#F7CE5C"/>
<path d="M396.214 1102.85C501.815 1102.85 597.283 1146.23 665.774 1216.14C640.319 1228.32 616.304 1244.62 594.713 1265.07C591.385 1268.22 588.153 1271.43 585.016 1274.71C535.202 1228.35 468.412 1200 395 1200C240.913 1200 116 1324.91 116 1479C116 1633.09 240.913 1758 395 1758C474.868 1758 546.896 1724.44 597.756 1670.65C623.514 1694.37 652.746 1712.35 683.771 1724.54C614.557 1805.92 511.415 1857.55 396.214 1857.55C187.811 1857.55 18.8673 1688.6 18.8672 1480.2C18.8672 1271.8 187.811 1102.85 396.214 1102.85ZM395 1216C464.281 1216 527.305 1242.79 574.279 1286.57C554.634 1309.58 539.339 1335.09 528.424 1362C495.95 1325.7 448.751 1302.85 396.214 1302.85C298.268 1302.85 218.867 1382.25 218.867 1480.2C218.867 1578.14 298.268 1657.55 396.214 1657.55C453.254 1657.55 504.002 1630.61 536.443 1588.78C548.471 1613.23 564.336 1636.32 584.063 1657.15C584.805 1657.93 585.551 1658.71 586.3 1659.48C538.348 1710.29 470.377 1742 395 1742C249.749 1742 132 1624.25 132 1479C132 1333.75 249.749 1216 395 1216Z" fill="#2C3D56"/>
<path d="M1162.41 1501.62H765.534C769.142 1550.93 788.084 1590.92 822.36 1621.58C856.636 1651.65 899.932 1666.68 952.248 1666.68C981.713 1666.68 1008.77 1661.57 1033.43 1651.35C1058.08 1640.53 1079.43 1624.89 1097.47 1604.45L1133.55 1645.94C1112.5 1671.19 1086.04 1690.44 1054.17 1703.67C1022.9 1716.9 988.328 1723.51 950.444 1723.51C901.736 1723.51 858.44 1713.29 820.556 1692.84C783.273 1671.8 754.109 1642.93 733.062 1606.25C712.015 1569.57 701.492 1528.08 701.492 1481.77C701.492 1435.47 711.414 1393.98 731.258 1357.3C751.703 1320.62 779.365 1292.05 814.242 1271.61C849.721 1251.16 889.409 1240.94 933.306 1240.94C977.203 1240.94 1016.59 1251.16 1051.47 1271.61C1086.35 1292.05 1113.71 1320.62 1133.55 1357.3C1153.39 1393.38 1163.32 1434.87 1163.32 1481.77L1162.41 1501.62ZM933.306 1295.96C887.605 1295.96 849.119 1310.69 817.85 1340.16C787.182 1369.02 769.743 1406.91 765.534 1453.81H1101.98C1097.77 1406.91 1080.03 1369.02 1048.76 1340.16C1018.09 1310.69 979.609 1295.96 933.306 1295.96ZM1535.41 1240.94C1594.94 1240.94 1642.14 1258.38 1677.02 1293.26C1712.5 1327.53 1730.24 1377.74 1730.24 1443.89V1719H1666.2V1450.2C1666.2 1400.89 1653.87 1363.31 1629.21 1337.45C1604.56 1311.6 1569.38 1298.67 1523.68 1298.67C1472.57 1298.67 1431.98 1314 1401.91 1344.67C1372.44 1374.74 1357.71 1416.53 1357.71 1470.05V1719H1293.67V1244.55H1355.01V1332.04C1372.44 1303.18 1396.5 1280.93 1427.17 1265.29C1458.43 1249.06 1494.51 1240.94 1535.41 1240.94ZM2153.96 1690.14C2141.93 1700.96 2126.9 1709.38 2108.86 1715.39C2091.42 1720.8 2073.08 1723.51 2053.84 1723.51C2009.34 1723.51 1975.06 1711.48 1951.01 1687.43C1926.96 1663.38 1914.93 1629.4 1914.93 1585.5V1298.67H1830.14V1244.55H1914.93V1140.82H1978.97V1244.55H2123.29V1298.67H1978.97V1581.9C1978.97 1610.16 1985.89 1631.81 1999.72 1646.84C2014.15 1661.27 2034.59 1668.49 2061.05 1668.49C2074.28 1668.49 2086.91 1666.38 2098.94 1662.17C2111.56 1657.96 2122.39 1651.95 2131.41 1644.13L2153.96 1690.14ZM2666.92 1501.62H2270.04C2273.65 1550.93 2292.59 1590.92 2326.87 1621.58C2361.14 1651.65 2404.44 1666.68 2456.76 1666.68C2486.22 1666.68 2513.28 1661.57 2537.94 1651.35C2562.59 1640.53 2583.94 1624.89 2601.98 1604.45L2638.06 1645.94C2617.01 1671.19 2590.55 1690.44 2558.68 1703.67C2527.41 1716.9 2492.84 1723.51 2454.95 1723.51C2406.24 1723.51 2362.95 1713.29 2325.06 1692.84C2287.78 1671.8 2258.62 1642.93 2237.57 1606.25C2216.52 1569.57 2206 1528.08 2206 1481.77C2206 1435.47 2215.92 1393.98 2235.77 1357.3C2256.21 1320.62 2283.87 1292.05 2318.75 1271.61C2354.23 1251.16 2393.92 1240.94 2437.81 1240.94C2481.71 1240.94 2521.1 1251.16 2555.98 1271.61C2590.85 1292.05 2618.21 1320.62 2638.06 1357.3C2657.9 1393.38 2667.82 1434.87 2667.82 1481.77L2666.92 1501.62ZM2437.81 1295.96C2392.11 1295.96 2353.63 1310.69 2322.36 1340.16C2291.69 1369.02 2274.25 1406.91 2270.04 1453.81H2606.49C2602.28 1406.91 2584.54 1369.02 2553.27 1340.16C2522.6 1310.69 2484.12 1295.96 2437.81 1295.96ZM2859.51 1337.45C2874.55 1305.58 2896.8 1281.53 2926.26 1265.29C2956.33 1249.06 2993.31 1240.94 3037.21 1240.94V1303.18L3021.87 1302.28C2971.96 1302.28 2932.88 1317.61 2904.61 1348.28C2876.35 1378.95 2862.22 1421.94 2862.22 1477.26V1719H2798.18V1244.55H2859.51V1337.45Z" fill="#2C3D56"/>
<circle cx="382.346" cy="1490.37" r="46.2244" fill="#2C3D56"/>
</svg>
